<svg viewBox="0 0 1024 1066.697" xmlns="http://www.w3.org/2000/svg"><path d="M378.083 1045.333h-.58c-39.667 0-75.587-16.047-101.622-42.003L42.13 769.71C16.1 743.484.014 707.355.014 667.468c0-39.777 16-75.817 41.913-102.037l.292-.292 154.654-154.173L634.367 848.46l-154.48 155.048c-26.147 25.85-62.11 41.82-101.803 41.824zm-273.96-418.507C93.847 637.266 87.5 651.604 87.5 667.423v.003l-.002.24c0 15.69 6.353 29.895 16.626 40.185l233.49 233.49c10.276 10.195 24.428 16.495 40.05 16.495h.21-.01c15.804-.007 30.126-6.352 40.562-16.632l-.007.007 92.442-92.75-313.99-313.99zm30.747-154.13l451.35-451.35 437.738 437.738-451.35 451.35zM586.22 145.09L258.613 472.695 572.61 786.692l327.606-327.607z"/></svg>